<svg width="59" height="57" viewBox="0 0 59 57" fill="none" xmlns="http://www.w3.org/2000/svg">
<path d="M29.5839 0L32.7234 0.063811C34.0873 0.370101 35.5751 0.446674 36.8327 0.825282C38.2378 1.24785 39.7803 1.7796 41.46 2.42054L42.7043 3.01185L47.336 5.7557L50.1833 8.16773L52.5611 10.4989L54.7486 13.4172L55.8512 15.2507L56.9184 17.7393L57.9722 20.6788C58.2232 21.4956 58.4475 22.3209 58.6453 23.1547C59.1413 25.2561 58.8977 27.4725 58.9863 29.6293C59.1058 32.5731 58.4328 35.7891 57.4364 38.3373C56.3058 41.2272 54.635 43.9951 52.4239 46.6411C49.9028 49.5565 46.9714 51.8906 43.6297 53.6432C41.0024 54.9648 38.1995 55.9007 35.2208 56.4509C29.0688 57.591 23.175 56.9557 17.5396 54.5451C15.4909 53.6716 13.6089 52.6024 11.8938 51.3376L9.14396 49.0957C5.94689 46.1037 3.58083 42.7062 2.04577 38.9031L0.983031 35.904L0 29.6463L0.048709 26.5238L0.974175 21.4998C1.0834 20.5583 1.29595 19.7855 1.61182 19.1814L2.0989 18.0711L3.90555 14.57L5.97789 11.2859C7.73731 9.11921 9.78307 7.18363 12.1152 5.47918C12.3218 5.40545 12.5654 5.23387 12.8458 4.96445L17.3713 2.45457C17.9942 2.47159 18.8134 2.16813 19.8289 1.54421L21.9101 0.957155L24.0223 0.514738L25.0363 0.319052L28.4858 0.029778L29.5839 0ZM17.5174 6.62352C13.8038 8.44707 10.7558 11.0009 8.37347 14.285L6.35428 17.735C3.51441 23.5063 3.00518 29.4861 4.82659 35.6742L6.04874 38.7286C7.59266 42.0751 9.78012 44.9296 12.6111 47.292L14.3292 48.5767C16.8414 50.3379 19.6119 51.6226 22.6407 52.4309C27.1544 53.6532 31.7153 53.6716 36.3234 52.4862C42.0032 51.0256 46.5951 48.0577 50.0991 43.5825C51.5014 41.7816 52.5995 39.8786 53.3936 37.8736L54.5582 34.6448C55.122 32.0243 55.3272 29.9597 55.1737 28.4509C55.097 27.6937 55.0438 27.0797 55.0143 26.6089C54.9612 25.7212 54.9021 25.1087 54.8372 24.7712C54.539 23.2312 54.0888 21.7324 53.4866 20.2747L53.3493 19.8408L51.9014 17.4202C51.2578 16.2149 50.4268 15.2521 49.4084 14.5317L47.3183 12.4685C46.8637 12.1764 46.8209 12.1268 47.1899 12.3197C42.1626 8.73209 36.7264 7.38073 30.8813 8.26557C29.981 8.4017 29.0525 8.63283 28.0961 8.95898C24.6555 10.1203 21.5647 11.7581 19.0407 14.3063L16.3174 17.6202C15.051 19.2083 14.1063 21.1198 13.4835 23.3546C13.0318 26.097 13.0141 28.838 13.4303 31.5776C13.665 33.1176 14.3558 34.8405 15.0599 36.1932C15.8097 37.6368 16.7794 38.869 17.9691 39.89C19.8245 41.4767 22.2422 43.0677 24.6998 43.7229C28.8533 44.8289 32.7131 44.646 36.2791 43.1741C40.8312 41.2938 43.7744 37.9303 45.1087 33.0835C46.1892 29.1613 45.7227 25.6135 43.7094 22.44C42.8386 21.0645 41.8615 20.0109 40.7781 19.2792C39.4113 18.349 38.0887 17.745 36.8105 17.467C34.2865 16.9197 31.6887 17.0714 29.0171 17.9222C28.3883 18.1207 27.5367 18.6142 26.4621 19.4026C24.1271 21.0759 22.6761 23.1972 22.1093 25.7666C21.7241 29.5612 22.5787 32.9134 26.2806 34.8149C28.35 35.8756 30.5537 35.8827 32.8917 34.8362L34.3574 33.9599C34.7057 33.5713 35.1028 33.6167 35.5485 34.096C36.0415 34.6178 36.6098 35.1779 37.2533 35.7763C37.5544 35.938 37.5146 36.1691 37.1338 36.4698C34.5655 38.5202 31.6179 39.3923 28.2909 39.086C26.7175 38.9385 25.3433 38.5315 24.1684 37.8651C21.7639 36.4995 20.223 34.849 19.2001 32.4114C18.1506 29.9058 17.8982 28.1659 18.3942 25.4348C18.7632 24.2182 19.1411 23.0285 19.5278 21.8657C19.699 21.3609 20.2481 20.4775 21.175 19.2154C22.4828 17.5081 24.2437 16.11 26.4577 15.021C32.5773 12.4005 38.3795 13.0584 43.8644 16.9948L44.2629 17.2458L45.4718 18.3774L47.1545 20.6746C47.5117 21.3637 47.8881 22.077 48.2836 22.8143C48.6851 23.5602 48.9346 24.3118 49.032 25.069C49.2416 26.7082 49.3582 28.3729 49.3818 30.0632C49.2224 30.4461 49.1766 30.8956 49.2445 31.4117L48.815 33.7217C47.1796 39.8645 43.336 44.205 37.2843 46.7432C30.0193 49.1992 23.3241 48.3087 17.1986 44.0717C12.8015 40.7153 10.2775 36.3209 9.48492 31.0118C9.19267 29.0635 9.12329 27.2541 9.2768 25.5837C9.46573 23.5049 10.0901 21.273 11.1499 18.8879C11.8288 17.3252 12.7528 15.8306 13.9218 14.4041C15.8702 11.9169 18.2805 9.76724 21.1529 7.95503C23.7861 6.57105 25.6725 5.73301 26.8119 5.4409C29.4806 4.76025 32.1433 4.32634 34.8002 4.13917C34.8025 4.13917 34.8048 4.13827 34.8064 4.13667C34.8081 4.13508 34.809 4.13292 34.809 4.13066C34.809 4.1284 34.8081 4.12624 34.8064 4.12464C34.8048 4.12305 34.8025 4.12215 34.8002 4.12215C28.809 3.31814 23.2031 3.67122 17.5174 6.62352Z" fill="white"/>
</svg>
